<?xml version="1.0" encoding="utf-8"?>
<!-- Generator: Adobe Illustrator 23.0.0, SVG Export Plug-In . SVG Version: 6.00 Build 0)  -->
<svg version="1.1" id="bucket" xmlns="http://www.w3.org/2000/svg" xmlns:xlink="http://www.w3.org/1999/xlink" x="0px" y="0px"
	 viewBox="0 0 24 24" style="enable-background:new 0 0 24 24;" xml:space="preserve">
<style type="text/css">
	.st0{fill:#C2C6D7;}
	.st1{fill:#3C3C3C;}
	.st2{fill:#1CEA6F;}
</style>
<path id="drop" class="st0" d="M19,17c1.1,0,2-0.9,2-2c0-1.3-2-3.5-2-3.5s-2,2.2-2,3.5C17,16.1,17.9,17,19,17z"/>
<path id="fill" class="st1" d="M14.8,10c-1.9-1.7-4.3-0.3-6.6-0.8C7.7,9,6.6,8.6,6.6,8.6L5.2,10l4.8,4.7L14.8,10z"/>
<rect id="splash" x="3" y="20" class="st2" width="16" height="2"/>
<path id="main_2_" class="st0" d="M16.3,8.6L14.8,10l0,0L10,14.7L5.2,10l6.2-6.2L10,2.4H6.2v2H8L3.4,9c-0.6,0.5-0.6,1.4,0,2l5.7,5.7
	c0.6,0.6,1.4,0.6,2,0l6.7-6.7L16.3,8.6z"/>
</svg>
